<svg height="496pt" viewBox="0 0 496 496" width="496pt" xmlns="http://www.w3.org/2000/svg"><path d="m488 143.996094h-128v-136c0-2.496094-1.167969-4.839844-3.144531-6.363282-1.976563-1.511718-4.542969-2-6.960938-1.359374l-174.964843 47.722656h-30.929688c-4.414062 0-8 3.574218-8 8v64c0 4.421875 3.585938 8 8 8h24v16h-160c-4.414062 0-8 3.574218-8 8v256c0 4.421875 3.585938 8 8 8h192v32h-40c-22.054688 0-40 17.941406-40 40 0 4.421875 3.585938 8 8 8h240c4.414062 0 8-3.578125 8-8 0-22.058594-17.945312-40-40-40h-40v-32h192c4.414062 0 8-3.578125 8-8v-256c0-4.425782-3.585938-8-8-8zm-304-13.53125 16 4.363281v41.167969h-16zm0-16.582032v-51.777343l160-43.628907v139.039063zm-32-49.886718h16v48h-16zm206.632812 416h-221.265624c3.304687-9.3125 12.199218-16 22.632812-16h176c10.433594 0 19.328125 6.6875 22.632812 16zm-78.632812-32h-64v-32h64zm200-48h-464v-240h152v24c0 4.421875 3.585938 8 8 8h32c4.414062 0 8-3.578125 8-8v-8h16v-16h-16v-20.800782l133.894531 36.519532c.699219.183594 1.402344.28125 2.105469.28125 1.734375 0 3.449219-.5625 4.855469-1.640625 1.976562-1.519531 3.144531-3.863281 3.144531-6.359375v-8h120zm0 0"/><path d="m376 63.996094h48v16h-48zm0 0"/><path d="m373.011719 32.558594 39.996093-16.003906 5.945313 14.863281-39.996094 16.003906zm0 0"/><path d="m373.03125 111.414062 5.945312-14.863281 40 16-5.945312 14.863281zm0 0"/><path d="m208 303.996094h16v32h16v-88c0-4.425782-3.585938-8-8-8h-32c-4.414062 0-8 3.574218-8 8v88h16zm16-48v32h-16v-32zm0 0"/><path d="m264 335.996094h32c4.414062 0 8-3.578125 8-8v-88h-16v48h-24c-4.414062 0-8 3.574218-8 8v32c0 4.421875 3.585938 8 8 8zm8-32h16v16h-16zm0 0"/><path d="m328 207.996094h-160c-4.414062 0-8 3.574218-8 8v144c0 4.421875 3.585938 8 8 8h160c4.414062 0 8-3.578125 8-8v-144c0-4.425782-3.585938-8-8-8zm-8 144h-144v-128h144zm0 0"/><path d="m48 335.996094h-16v40c0 4.421875 3.585938 8 8 8h40v-16h-32zm0 0"/><path d="m32 183.996094v40h16v-32h32v-16h-40c-4.414062 0-8 3.574218-8 8zm0 0"/><path d="m448 223.996094h16v-40c0-4.425782-3.585938-8-8-8h-40v16h32zm0 0"/><path d="m456 383.996094c4.414062 0 8-3.578125 8-8v-40h-16v32h-32v16zm0 0"/></svg>