<svg height="480pt" viewBox="0 0 480 480" width="480pt" xmlns="http://www.w3.org/2000/svg"><path d="m144 24h16v16h-16zm0 0"/><path d="m176 24h16v16h-16zm0 0"/><path d="m144 432h48v16h-48zm0 0"/><path d="m416 264c-.054688-14.546875-9.914062-27.226562-24-30.863281v-69.089844c0-5.332031-2.65625-10.3125-7.082031-13.285156-4.429688-2.972657-10.046875-3.542969-14.980469-1.523438l-49.9375 19.898438v-17.34375c10.035156-7.492188 15.964844-19.269531 16-31.792969v-48c-.042969-10.132812-6.445312-19.148438-16-22.527344v-9.472656c-.027344-22.082031-17.917969-39.9726562-40-40h-224c-22.082031.0273438-39.972656 17.917969-40 40v9.472656c-9.554688 3.378906-15.9570312 12.394532-16 22.527344v48c.0351562 12.523438 5.964844 24.300781 16 31.792969v288.207031c.027344 22.082031 17.917969 39.972656 40 40h232c20.039062 0 32-14.953125 32-40v-81.136719l49.871094 19.871094c4.9375 2.050781 10.574218 1.496094 15.015625-1.472656 4.445312-2.972657 7.113281-7.964844 7.113281-13.308594v-69.089844c14.085938-3.636719 23.945312-16.316406 24-30.863281zm-96-144c0 13.253906-10.746094 24-24 24s-24-10.746094-24-24v-56h40c4.417969 0 8 3.582031 8 8zm-64 0c0 13.253906-10.746094 24-24 24s-24-10.746094-24-24v-56h48zm-64 0c0 13.253906-10.746094 24-24 24s-24-10.746094-24-24v-56h48zm-64 0c0 13.253906-10.746094 24-24 24s-24-10.746094-24-24v-56h48zm-96-80c0-13.253906 10.746094-24 24-24h224c13.253906 0 24 10.746094 24 24v8h-272zm-16 32c0-4.417969 3.582031-8 8-8h40v56c0 13.253906-10.746094 24-24 24s-24-10.746094-24-24zm272 392h-232c-13.253906 0-24-10.746094-24-24v-24h272v24c0 24-12.039062 24-16 24zm16-64h-272v-240.800781c15.207031 3.117187 30.832031-2.914063 40-15.4375 7.460938 10.210937 19.351562 16.25 32 16.25s24.539062-6.039063 32-16.25c7.460938 10.210937 19.351562 16.25 32 16.25s24.539062-6.039063 32-16.25c7.460938 10.210937 19.351562 16.25 32 16.25s24.539062-6.039063 32-16.25c9.167969 12.523437 24.792969 18.554687 40 15.4375v16.320312l-81.535156 32.480469h-62.464844c-30.929688 0-56 25.070312-56 56s25.070312 56 56 56h9.96875l14.078125 49.304688c.679687 8.304687 7.621094 14.699218 15.953125 14.695312h16c8.835938 0 16-7.164062 16-16l-13.472656-48h3.9375l81.535156 32.488281zm-88.320312-32h-15.679688l-13.390625-48h15.359375zm-55.679688-64c-22.089844 0-40-17.910156-40-40s17.910156-40 40-40h56v80zm72 2.574219v-85.148438l144-57.378906v199.953125zm160-28.796875v-27.554688c4.945312 2.824219 7.996094 8.082032 7.996094 13.777344s-3.050782 10.953125-7.996094 13.777344zm0 0"/><path d="m472 256h-32c-4.417969 0-8 3.582031-8 8s3.582031 8 8 8h32c4.417969 0 8-3.582031 8-8s-3.582031-8-8-8zm0 0"/><path d="m429.257812 297.945312c-3.140624-3.03125-8.128906-2.988281-11.214843.097657-3.085938 3.085937-3.128907 8.074219-.097657 11.214843l22.621094 22.621094c3.140625 3.03125 8.128906 2.988282 11.214844-.097656s3.128906-8.074219.097656-11.214844zm0 0"/><path d="m423.601562 232.398438c2.121094 0 4.15625-.84375 5.65625-2.34375l22.621094-22.621094c3.03125-3.140625 2.988282-8.128906-.097656-11.214844s-8.074219-3.128906-11.214844-.097656l-22.621094 22.621094c-2.289062 2.289062-2.972656 5.730468-1.734374 8.71875 1.238281 2.988281 4.152343 4.9375 7.390624 4.9375zm0 0"/><path d="m168 256h-32c-4.417969 0-8 3.582031-8 8s3.582031 8 8 8h32c4.417969 0 8-3.582031 8-8s-3.582031-8-8-8zm0 0"/><path d="m168 232h-24c-4.417969 0-8 3.582031-8 8s3.582031 8 8 8h24c4.417969 0 8-3.582031 8-8s-3.582031-8-8-8zm0 0"/><path d="m168 280h-24c-4.417969 0-8 3.582031-8 8s3.582031 8 8 8h24c4.417969 0 8-3.582031 8-8s-3.582031-8-8-8zm0 0"/></svg>