<svg height="504pt" viewBox="0 -3 504.01838 504" width="504pt" xmlns="http://www.w3.org/2000/svg"><path d="m163.371094 296.855469h.03125c35.335937.03125 69.21875-14.066407 94.105468-39.152344 51.898438-51.902344 51.882813-136.457031-.042968-188.378906-51.921875-51.925781-136.390625-51.988281-188.289063-.085938-38.035156 38.152344-49.394531 95.433594-28.792969 145.214844 20.601563 49.777344 69.113282 82.28125 122.988282 82.402344zm114.449218-94.046875-54.800781-19.199219v-79.835937l37.160157-13.019532c24.023437 32.148438 30.625 74.082032 17.640624 112.054688zm-121.800781-8.953125h45.898438l-18.382813 62h-27.515625zm53.835938-12h-61.460938c-2.734375 0-5.375-2.214844-5.375-4.949219v-66.421875c0-2.738281 2.640625-4.628906 5.375-4.628906h62.625v76zm-132.195313-104.175781c47.351563-47.222657 123.992188-47.203126 171.320313.039062 1.054687 1.054688 2.070312 2.289062 3.074219 3.371094l-35.921876 12.765625h-67.738281c-9.351562 0-17.375 7.273437-17.375 16.628906v66.421875c0 7.808594 6 14.386719 13 16.347656v68.917969c-.003906 1.550781.625 3.035156 1.746094 4.109375 1.117187 1.074219 2.628906 1.640625 4.179687 1.574219h38.074219c2.632813.0625 4.984375-1.632813 5.753907-4.152344l20.652343-69.847656h1.703125l57.300782 20.097656c-19.652344 43.121094-62.640626 70.824219-110.027344 70.902344h-.03125c-49.035156-.101563-93.199219-29.691407-111.949219-75.003907-18.746094-45.3125-8.394531-97.453124 26.238281-132.171874zm0 0"/><path d="m140.609375 325.253906.007813 19.601563h-4.597657v-.046875c-1.636719-.089844-3.230469.542968-4.355469 1.730468-1.140624 1.117188-1.792968 2.636719-1.816406 4.234376v113.644531c-.023437 8.867187 3.488282 17.382812 9.757813 23.65625 6.265625 6.277343 14.777343 9.796875 23.648437 9.78125h.285156c.515626 0 1.03125-.050781 1.546876-.078125 17.738281-.996094 31.625-15.65625 31.664062-33.421875l-.023438-113.53125c0-1.585938-.636718-3.109375-1.761718-4.226563-1.125-1.121094-2.652344-1.746094-4.238282-1.738281h-4.566406v-19.59375c56.492188-8.011719 104.75-44.839844 127.386719-97.21875l35.082031 12.296875c.636719.222656 1.308594.335938 1.984375.335938 1.308594 0 2.585938-.382813 3.675781-1.105469 1.640626-1.105469 2.65625-2.925781 2.734376-4.902344v-50.570313l25.128906-2.757812c14.164062-1.535156 24.886718-13.507812 24.867187-27.753906v-22.714844c.019531-14.25-10.707031-26.21875-24.875-27.757812l-25.125-2.753907v-47.648437c-.09375-1.96875-1.109375-3.78125-2.738281-4.894532-1.628906-1.113281-3.6875-1.398437-5.554688-.765624l-54.078124 18.945312c-4.800782-6.429688-10.066407-12.503906-15.746094-18.175781-63.730469-63.734375-167.425782-63.753907-231.132813-.050781-63.707031 63.707031-63.691406 167.414062.042969 231.144531 25.03125 25.179687 57.628906 41.457031 92.796875 46.335937zm23.902344 160.5c-.386719.019532-.765625.03125-1.191407.023438-11.855468-.003906-21.46875-9.601563-21.5-21.457032l-.023437-107.558593 42.933594.007812.023437 107.617188c-.015625 11.363281-8.898437 20.738281-20.246094 21.367187zm9.648437-140.984375h-21.542968l-.003907-18.300781c3.566407.230469 7.15625.394531 10.761719.394531h.039062c3.601563 0 7.179688-.160156 10.742188-.390625zm206.679688-229.722656c8.078125.875 14.191406 7.703125 14.179687 15.828125v22.714844c.011719 8.121094-6.105469 14.949218-14.179687 15.828125l-23.820313 2.609375v-59.589844zm-35.820313-53.871094v165.035157l-26.941406-9.378907c15.945313-46.917969 10.007813-98.515625-16.175781-140.585937zm-288.777343-4.917969c59.1875-59.027343 154.988281-59.003906 214.148437.054688 6.191406 6.179688 11.839844 12.882812 16.882813 20.027344.101562.152344.199218.304687.308593.445312 28.675781 41.253906 35.113281 94.011719 17.199219 140.949219-.125.242187-.234375.492187-.328125.75-.039063.113281-.066406.226563-.101563.339844-22.824218 57.894531-78.703124 95.96875-140.933593 96.03125h-.035157c-40.195312.089843-78.757812-15.902344-107.09375-44.410157-59.050781-59.058593-59.078124-155.15625-.046874-214.1875zm0 0"/><path d="m498.019531 139.855469h-62c-3.316406 0-6 2.683593-6 6 0 3.3125 2.683594 6 6 6h62c3.3125 0 6-2.6875 6-6 0-3.316407-2.6875-6-6-6zm0 0"/><path d="m431.375 110.414062c.503906 0 1.007812-.0625 1.496094-.1875l45.957031-11.785156c3.210937-.824218 5.144531-4.09375 4.324219-7.300781-.824219-3.210937-4.09375-5.144531-7.304688-4.324219l-45.957031 11.785156c-2.933594.746094-4.847656 3.5625-4.472656 6.5625.378906 3.003907 2.933593 5.253907 5.957031 5.25zm0 0"/><path d="m429.890625 190.355469 45.957031 11.785156c3.210938.820313 6.480469-1.113281 7.304688-4.324219.820312-3.207031-1.113282-6.476562-4.324219-7.300781l-45.957031-11.78125c-3.210938-.824219-6.480469 1.113281-7.304688 4.320313-.820312 3.210937 1.113282 6.480468 4.324219 7.304687zm0 0"/></svg>